# xmcd CD database file
#
# Track frame offsets:
#	150
#	23977
#	49242
#	65660
#	83650
#	108330
#	132777
#	144625
#	159185
#	180830
#	213972
#
# Disc length: 3322 seconds
#
# Revision: 0
# Processed by: cddbd v1.5.1PL2 Copyright (c) Steve Scherf et al.
# Submitted via: CDex 1.50beta10
#
DISCID=8c0cf80b
DTITLE=Global Garanty Orchestra - Musical Hair-Splitting In A Remote World
DYEAR=1992
DGENRE=Jazz
TTITLE0=As We Fall From The Trees
TTITLE1=Mountain Swing
TTITLE2=Shades Of Sound In The Animal Kingdom
TTITLE3=Rattelsnake Cartering
TTITLE4=Subterranean Love
TTITLE5=Naturally Everything Would Happen
TTITLE6=Grand Unified Theory
TTITLE7=The Long Drive
TTITLE8=The Balkan Hunt
TTITLE9=The Man From Lonely Woods
TTITLE10=He Went To Find A Fortune
EXTD=YEAR: 1992
EXTT0=
EXTT1=
EXTT2=
EXTT3=
EXTT4=
EXTT5=
EXTT6=
EXTT7=
EXTT8=
EXTT9=
EXTT10=
PLAYORDER=
